<?xml version="1.0" encoding="utf-8"?>
<!-- Generator: Adobe Illustrator 14.0.0, SVG Export Plug-In . SVG Version: 6.00 Build 43363)  -->
<!DOCTYPE svg PUBLIC "-//W3C//DTD SVG 1.1//EN" "http://www.w3.org/Graphics/SVG/1.1/DTD/svg11.dtd">
<svg version="1.1" id="NATGEO" xmlns="http://www.w3.org/2000/svg" xmlns:xlink="http://www.w3.org/1999/xlink" x="0px" y="0px"
	 width="400px" height="300px" viewBox="0 0 400 300" enable-background="new 0 0 400 300" xml:space="preserve">
<path id="border" fill="#FBD42C" d="M14.855,94.396v110.202H90.75V94.396H14.855z M79.771,193.501H25.794v-88.003h53.979
	L79.771,193.501L79.771,193.501z"/>
<path id="natgeo" d="M135.975,132.818h-0.105c-6.055-9.861-12.166-18.572-18.332-27.34h-4.702v38.356h5.191v-27.509h0.052
	c6.114,9.919,12.223,18.688,18.392,27.508h4.702v-38.356h-5.196L135.975,132.818L135.975,132.818z M173.452,143.833l-12.061-38.356
	h-5.406l-13.086,38.356h5.624l3.3-10.467h11.407l2.977,10.467H173.452z M153.497,128.652c1.517-5.042,3.029-9.691,4.382-15.617
	h0.108c1.517,5.923,2.866,10.575,4.271,15.617H153.497z M179.559,143.833h6.49v-33.204h9.951v-5.151h-26.389v5.151h9.948
	L179.559,143.833L179.559,143.833L179.559,143.833z M204.541,105.478h-6.433v38.356h6.433V105.478z M224.553,144.486
	c9.897,0,16.063-8.928,16.063-20.381c0-10.739-6.817-19.289-16.063-19.289c-9.247,0-16.064,8.55-16.064,19.289
	C208.489,135.561,214.653,144.486,224.553,144.486z M224.553,110.299c6.436,0,9.138,6.738,9.138,13.809
	c0,7.341-2.377,14.902-9.138,14.902c-6.76,0-9.139-7.56-9.139-14.902C215.416,117.037,218.119,110.299,224.553,110.299z
	 M249.749,116.325h0.061c6.106,9.919,12.218,18.688,18.384,27.508h4.702v-38.356h-5.188v27.34h-0.108
	c-6.054-9.861-12.166-18.572-18.33-27.34h-4.705v38.356h5.188L249.749,116.325L249.749,116.325z M283.543,133.367h11.415
	l2.975,10.467h7.243l-12.057-38.356h-5.407l-13.09,38.356h5.63L283.543,133.367z M289.607,113.035h0.106
	c1.512,5.923,2.862,10.575,4.271,15.617h-8.767C286.739,123.61,288.25,118.958,289.607,113.035z M326.318,138.68h-12.813v-33.203
	h-6.438v38.356h19.253v-5.153H326.318z M130.685,187.703c-1.354,0.714-2.812,0.936-4.541,0.936c-5.566,0-10.978-5.373-10.978-14.468
	c0-8.711,4.703-14.247,11.626-14.247c2.487,0,5.191,0.93,6.921,2.024l2.106-4.546c-2.159-1.646-5.677-2.959-9.191-2.959
	c-11.354,0-18.385,9.148-18.385,19.613c0,11.289,7.03,20.06,18.166,20.06c3.679,0,7.302-0.979,10.767-2.357v-15.84h-6.491V187.703z
	 M149.555,175.923h10.601v-5.147h-10.601v-10.521h10.817v-5.149h-17.306v38.356h19.251v-5.153h-12.764L149.555,175.923
	L149.555,175.923z M180.383,154.443c-9.249,0-16.06,8.549-16.06,19.289c0,11.453,6.163,20.386,16.06,20.386
	c9.896,0,16.059-8.933,16.059-20.386C196.439,162.992,189.628,154.443,180.383,154.443z M180.383,188.639
	c-6.762,0-9.141-7.563-9.141-14.906c0-7.068,2.703-13.811,9.141-13.811c6.436,0,9.137,6.737,9.137,13.811
	C189.518,181.074,187.142,188.639,180.383,188.639z M221.1,187.703c-1.352,0.714-2.813,0.936-4.543,0.936
	c-5.571,0-10.979-5.373-10.979-14.468c0-8.711,4.705-14.247,11.63-14.247c2.485,0,5.191,0.93,6.916,2.024l2.109-4.546
	c-2.161-1.646-5.679-2.959-9.195-2.959c-11.352,0-18.379,9.148-18.379,19.613c0,11.289,7.028,20.06,18.17,20.06
	c3.672,0,7.295-0.979,10.759-2.357v-15.84H221.1V187.703z M255.384,166.174c0-7.458-4.488-11.07-11.73-11.07H233.54v38.357h6.486
	v-14.467h2.921l6.109,14.467h7.405l-7.62-15.893C253.001,175.32,255.384,170.773,255.384,166.174z M242.73,174.063
	c-0.65,0.056-2.169,0.11-2.707,0.164v-13.971h2.871c3.833,0,5.995,2.242,5.995,6.188
	C248.889,171.594,245.811,173.896,242.73,174.063z M269.66,155.104l-13.09,38.357h5.621l3.301-10.47h11.41l2.979,10.47h7.24
	l-12.061-38.357H269.66z M267.174,178.285c1.514-5.046,3.025-9.703,4.38-15.62h0.109c1.511,5.917,2.861,10.574,4.271,15.62H267.174z
	 M334.603,169.844h-13.467v-14.74h-6.435v38.357h6.435v-18.469h13.467v18.469h6.487V155.21h-6.487V169.844z M347.305,193.457h6.437
	v-38.354h-6.437V193.457z M376.455,188.639c-6.273,0-11.575-5.373-11.575-14.468c0-8.711,4.817-14.247,11.413-14.247
	c2.487,0,5.084,1.149,6.652,2.135l2.055-4.65c-2.22-1.536-5.352-2.965-8.705-2.965c-11.303,0-18.279,9.152-18.279,19.619
	c0,11.289,7.03,20.058,18.176,20.058c3.134,0,6.593-1.263,8.54-2.627l-1.783-4.771C381.271,187.814,378.943,188.639,376.455,188.639
	z M299.29,155.104h-10.105v38.357h6.488v-14.467h2.917c7.736,0,12.437-6.361,12.437-12.82
	C311.024,158.716,306.542,155.104,299.29,155.104z M298.373,174.063c-0.648,0.049-2.216,0.104-2.702,0.152v-13.961h2.917
	c3.787,0,5.951,2.242,5.951,6.189C304.537,171.594,301.454,173.896,298.373,174.063z"/>
</svg>
